<mxfile host="app.diagrams.net" agent="Mozilla/5.0 (Windows NT 10.0; Win64; x64) AppleWebKit/537.36 (KHTML, like Gecko) Chrome/135.0.0.0 Safari/537.36 Edg/135.0.0.0" version="26.2.9">
  <diagram name="Page-1" id="i-imtnhCtj1Onl27nEsb">
    <mxGraphModel grid="1" page="1" gridSize="10" guides="1" tooltips="1" connect="1" arrows="1" fold="1" pageScale="1" pageWidth="850" pageHeight="1100" math="0" shadow="0">
      <root>
        <mxCell id="0" />
        <mxCell id="1" parent="0" />
        <mxCell id="7Rpjuh0TAgdDikb-cw0r-3" value="LÃ¤rare" style="rounded=0;whiteSpace=wrap;html=1;" vertex="1" parent="1">
          <mxGeometry y="470" width="120" height="50" as="geometry" />
        </mxCell>
        <mxCell id="7Rpjuh0TAgdDikb-cw0r-12" value="" style="rounded=0;whiteSpace=wrap;html=1;" vertex="1" parent="1">
          <mxGeometry x="250" width="770" height="90" as="geometry" />
        </mxCell>
        <mxCell id="7Rpjuh0TAgdDikb-cw0r-13" value="&lt;h1 style=&quot;margin-top: 0px;&quot;&gt;Global functions&lt;/h1&gt;&lt;p&gt;renderNavigation(),&lt;/p&gt;" style="text;html=1;whiteSpace=wrap;overflow=hidden;rounded=0;" vertex="1" parent="1">
          <mxGeometry x="250" width="770" height="120" as="geometry" />
        </mxCell>
        <mxCell id="7Rpjuh0TAgdDikb-cw0r-14" value="Login()" style="rounded=0;whiteSpace=wrap;html=1;" vertex="1" parent="1">
          <mxGeometry x="240" y="500" width="155" height="80" as="geometry" />
        </mxCell>
        <mxCell id="7Rpjuh0TAgdDikb-cw0r-16" value="" style="endArrow=classic;html=1;rounded=0;exitX=1;exitY=0.5;exitDx=0;exitDy=0;entryX=0.007;entryY=0.603;entryDx=0;entryDy=0;entryPerimeter=0;" edge="1" parent="1" source="7Rpjuh0TAgdDikb-cw0r-3" target="7Rpjuh0TAgdDikb-cw0r-14">
          <mxGeometry width="50" height="50" relative="1" as="geometry">
            <mxPoint x="160" y="410" as="sourcePoint" />
            <mxPoint x="210" y="360" as="targetPoint" />
          </mxGeometry>
        </mxCell>
        <mxCell id="7Rpjuh0TAgdDikb-cw0r-17" value="Login.php" style="text;html=1;align=center;verticalAlign=middle;whiteSpace=wrap;rounded=0;" vertex="1" parent="1">
          <mxGeometry x="287.5" y="580" width="60" height="30" as="geometry" />
        </mxCell>
        <mxCell id="7Rpjuh0TAgdDikb-cw0r-35" style="edgeStyle=orthogonalEdgeStyle;rounded=0;orthogonalLoop=1;jettySize=auto;html=1;exitX=1;exitY=0.5;exitDx=0;exitDy=0;entryX=0;entryY=0.5;entryDx=0;entryDy=0;" edge="1" parent="1" source="7Rpjuh0TAgdDikb-cw0r-18" target="7Rpjuh0TAgdDikb-cw0r-33">
          <mxGeometry relative="1" as="geometry" />
        </mxCell>
        <mxCell id="7Rpjuh0TAgdDikb-cw0r-18" value="renderTests&lt;div&gt;filterTests&lt;br&gt;&lt;div&gt;&lt;br&gt;&lt;/div&gt;&lt;/div&gt;" style="rounded=0;whiteSpace=wrap;html=1;" vertex="1" parent="1">
          <mxGeometry x="475" y="430" width="220" height="150" as="geometry" />
        </mxCell>
        <mxCell id="7Rpjuh0TAgdDikb-cw0r-19" value="Frontpage.php" style="text;html=1;align=center;verticalAlign=middle;whiteSpace=wrap;rounded=0;" vertex="1" parent="1">
          <mxGeometry x="555" y="580" width="60" height="30" as="geometry" />
        </mxCell>
        <mxCell id="7Rpjuh0TAgdDikb-cw0r-22" value="" style="endArrow=classic;html=1;rounded=0;entryX=0;entryY=0.5;entryDx=0;entryDy=0;exitX=1;exitY=0.5;exitDx=0;exitDy=0;" edge="1" parent="1" source="7Rpjuh0TAgdDikb-cw0r-14" target="7Rpjuh0TAgdDikb-cw0r-18">
          <mxGeometry width="50" height="50" relative="1" as="geometry">
            <mxPoint x="335" y="540" as="sourcePoint" />
            <mxPoint x="385" y="490" as="targetPoint" />
          </mxGeometry>
        </mxCell>
        <mxCell id="7Rpjuh0TAgdDikb-cw0r-29" style="edgeStyle=orthogonalEdgeStyle;rounded=0;orthogonalLoop=1;jettySize=auto;html=1;entryX=0;entryY=0.5;entryDx=0;entryDy=0;exitX=0.836;exitY=1.006;exitDx=0;exitDy=0;exitPerimeter=0;" edge="1" parent="1" source="7Rpjuh0TAgdDikb-cw0r-18" target="Kzuse2UKIRDH7PAZjoJd-2">
          <mxGeometry relative="1" as="geometry">
            <mxPoint x="1010" y="800" as="targetPoint" />
            <mxPoint x="800" y="620" as="sourcePoint" />
          </mxGeometry>
        </mxCell>
        <mxCell id="7Rpjuh0TAgdDikb-cw0r-23" value="generateTest&lt;div&gt;generateRandomQuestion&lt;/div&gt;&lt;div&gt;randomizeQuestion&lt;/div&gt;&lt;div&gt;printTest&lt;/div&gt;&lt;div&gt;changeQuestionContent&lt;/div&gt;" style="rounded=0;whiteSpace=wrap;html=1;" vertex="1" parent="1">
          <mxGeometry x="760" y="750" width="160" height="100" as="geometry" />
        </mxCell>
        <mxCell id="7Rpjuh0TAgdDikb-cw0r-24" value="generate-test.php" style="text;html=1;align=center;verticalAlign=middle;whiteSpace=wrap;rounded=0;" vertex="1" parent="1">
          <mxGeometry x="785" y="850" width="110" height="30" as="geometry" />
        </mxCell>
        <mxCell id="7Rpjuh0TAgdDikb-cw0r-25" value="" style="endArrow=classic;html=1;rounded=0;entryX=0;entryY=0.5;entryDx=0;entryDy=0;exitX=0.75;exitY=1;exitDx=0;exitDy=0;" edge="1" parent="1" source="7Rpjuh0TAgdDikb-cw0r-18" target="7Rpjuh0TAgdDikb-cw0r-23">
          <mxGeometry width="50" height="50" relative="1" as="geometry">
            <mxPoint x="645" y="740" as="sourcePoint" />
            <mxPoint x="695" y="690" as="targetPoint" />
            <Array as="points">
              <mxPoint x="640" y="800" />
            </Array>
          </mxGeometry>
        </mxCell>
        <mxCell id="7Rpjuh0TAgdDikb-cw0r-33" value="addQuestion&lt;div&gt;uploadImage&lt;/div&gt;" style="rounded=0;whiteSpace=wrap;html=1;" vertex="1" parent="1">
          <mxGeometry x="755" y="427.75" width="260" height="104.5" as="geometry" />
        </mxCell>
        <mxCell id="7Rpjuh0TAgdDikb-cw0r-34" value="add-question.php" style="text;html=1;align=center;verticalAlign=middle;whiteSpace=wrap;rounded=0;" vertex="1" parent="1">
          <mxGeometry x="835" y="532.25" width="100" height="30" as="geometry" />
        </mxCell>
        <mxCell id="Kzuse2UKIRDH7PAZjoJd-2" value="generateTestList&lt;div&gt;filterTests&lt;/div&gt;&lt;div&gt;renderTests&lt;/div&gt;" style="rounded=0;whiteSpace=wrap;html=1;" vertex="1" parent="1">
          <mxGeometry x="950" y="650" width="150" height="70" as="geometry" />
        </mxCell>
        <mxCell id="Kzuse2UKIRDH7PAZjoJd-3" value="Test-list.php" style="text;html=1;align=center;verticalAlign=middle;whiteSpace=wrap;rounded=0;" vertex="1" parent="1">
          <mxGeometry x="980" y="720" width="110" height="30" as="geometry" />
        </mxCell>
        <mxCell id="Kzuse2UKIRDH7PAZjoJd-4" value="renderSingleTest&lt;div&gt;renderTestFacit&lt;/div&gt;&lt;div&gt;printTest&lt;/div&gt;" style="rounded=0;whiteSpace=wrap;html=1;" vertex="1" parent="1">
          <mxGeometry x="1250" y="760" width="150" height="70" as="geometry" />
        </mxCell>
        <mxCell id="Kzuse2UKIRDH7PAZjoJd-5" value="Single-test.php" style="text;html=1;align=center;verticalAlign=middle;whiteSpace=wrap;rounded=0;" vertex="1" parent="1">
          <mxGeometry x="1270" y="830" width="110" height="30" as="geometry" />
        </mxCell>
        <mxCell id="Kzuse2UKIRDH7PAZjoJd-6" value="generateQuestionList&lt;div&gt;filterQuestions&lt;/div&gt;&lt;div&gt;deleteQuestion&lt;/div&gt;" style="rounded=0;whiteSpace=wrap;html=1;" vertex="1" parent="1">
          <mxGeometry x="1070" y="490" width="150" height="70" as="geometry" />
        </mxCell>
        <mxCell id="Kzuse2UKIRDH7PAZjoJd-7" value="question-list.php" style="text;html=1;align=center;verticalAlign=middle;whiteSpace=wrap;rounded=0;" vertex="1" parent="1">
          <mxGeometry x="1090" y="550" width="110" height="30" as="geometry" />
        </mxCell>
        <mxCell id="Kzuse2UKIRDH7PAZjoJd-8" value="renderSingleQuestion&lt;div&gt;changeQuestionContent&lt;/div&gt;" style="rounded=0;whiteSpace=wrap;html=1;" vertex="1" parent="1">
          <mxGeometry x="1260" y="470" width="150" height="70" as="geometry" />
        </mxCell>
        <mxCell id="Kzuse2UKIRDH7PAZjoJd-9" value="Single-question.php" style="text;html=1;align=center;verticalAlign=middle;whiteSpace=wrap;rounded=0;" vertex="1" parent="1">
          <mxGeometry x="1280" y="540" width="110" height="30" as="geometry" />
        </mxCell>
        <mxCell id="Kzuse2UKIRDH7PAZjoJd-10" value="" style="edgeStyle=none;orthogonalLoop=1;jettySize=auto;html=1;rounded=0;fontSize=12;startSize=8;endSize=8;curved=1;exitX=1;exitY=0.5;exitDx=0;exitDy=0;entryX=0;entryY=0.5;entryDx=0;entryDy=0;" edge="1" parent="1" source="Kzuse2UKIRDH7PAZjoJd-2" target="Kzuse2UKIRDH7PAZjoJd-4">
          <mxGeometry width="140" relative="1" as="geometry">
            <mxPoint x="1170" y="790" as="sourcePoint" />
            <mxPoint x="1280" y="790" as="targetPoint" />
            <Array as="points" />
          </mxGeometry>
        </mxCell>
        <mxCell id="Kzuse2UKIRDH7PAZjoJd-12" value="" style="edgeStyle=none;orthogonalLoop=1;jettySize=auto;html=1;rounded=0;fontSize=12;startSize=8;endSize=8;curved=1;exitX=1;exitY=0.5;exitDx=0;exitDy=0;entryX=0;entryY=0.5;entryDx=0;entryDy=0;" edge="1" parent="1" source="Kzuse2UKIRDH7PAZjoJd-6">
          <mxGeometry width="140" relative="1" as="geometry">
            <mxPoint x="1235" y="433.25" as="sourcePoint" />
            <mxPoint x="1260" y="515" as="targetPoint" />
            <Array as="points" />
          </mxGeometry>
        </mxCell>
        <mxCell id="Kzuse2UKIRDH7PAZjoJd-13" value="" style="edgeStyle=none;orthogonalLoop=1;jettySize=auto;html=1;rounded=0;fontSize=12;startSize=8;endSize=8;curved=1;exitX=1;exitY=0.5;exitDx=0;exitDy=0;entryX=0;entryY=0.5;entryDx=0;entryDy=0;" edge="1" parent="1" source="7Rpjuh0TAgdDikb-cw0r-23" target="Kzuse2UKIRDH7PAZjoJd-4">
          <mxGeometry width="140" relative="1" as="geometry">
            <mxPoint x="870" y="970" as="sourcePoint" />
            <mxPoint x="1090" y="960" as="targetPoint" />
            <Array as="points" />
          </mxGeometry>
        </mxCell>
        <mxCell id="8ChMiRJO6GbIGiK7dcPq-5" style="edgeStyle=none;curved=1;rounded=0;orthogonalLoop=1;jettySize=auto;html=1;exitX=1;exitY=0.5;exitDx=0;exitDy=0;entryX=0;entryY=0.5;entryDx=0;entryDy=0;fontSize=12;startSize=8;endSize=8;" edge="1" parent="1" source="8ChMiRJO6GbIGiK7dcPq-1" target="Kzuse2UKIRDH7PAZjoJd-6">
          <mxGeometry relative="1" as="geometry" />
        </mxCell>
        <mxCell id="8ChMiRJO6GbIGiK7dcPq-1" value="&lt;div&gt;generateCourseList&lt;/div&gt;&lt;div&gt;generateCategoryList&lt;/div&gt;renderCourses&lt;div&gt;renderCategories&lt;/div&gt;" style="rounded=0;whiteSpace=wrap;html=1;" vertex="1" parent="1">
          <mxGeometry x="765" y="570" width="130" height="70" as="geometry" />
        </mxCell>
        <mxCell id="8ChMiRJO6GbIGiK7dcPq-2" value="assignment.php" style="text;html=1;align=center;verticalAlign=middle;whiteSpace=wrap;rounded=0;" vertex="1" parent="1">
          <mxGeometry x="800" y="640" width="60" height="30" as="geometry" />
        </mxCell>
        <mxCell id="8ChMiRJO6GbIGiK7dcPq-3" value="" style="edgeStyle=none;orthogonalLoop=1;jettySize=auto;html=1;rounded=0;fontSize=12;startSize=8;endSize=8;curved=1;exitX=1;exitY=0.75;exitDx=0;exitDy=0;entryX=0;entryY=0.5;entryDx=0;entryDy=0;" edge="1" parent="1" source="7Rpjuh0TAgdDikb-cw0r-18" target="8ChMiRJO6GbIGiK7dcPq-1">
          <mxGeometry width="140" relative="1" as="geometry">
            <mxPoint x="830" y="700" as="sourcePoint" />
            <mxPoint x="970" y="700" as="targetPoint" />
            <Array as="points" />
          </mxGeometry>
        </mxCell>
        <mxCell id="8ChMiRJO6GbIGiK7dcPq-4" value="" style="edgeStyle=none;orthogonalLoop=1;jettySize=auto;html=1;rounded=0;fontSize=12;startSize=8;endSize=8;curved=1;exitX=1;exitY=0.5;exitDx=0;exitDy=0;entryX=0;entryY=0.25;entryDx=0;entryDy=0;" edge="1" parent="1" source="7Rpjuh0TAgdDikb-cw0r-33" target="Kzuse2UKIRDH7PAZjoJd-8">
          <mxGeometry width="140" relative="1" as="geometry">
            <mxPoint x="990" y="450" as="sourcePoint" />
            <mxPoint x="1130" y="450" as="targetPoint" />
            <Array as="points" />
          </mxGeometry>
        </mxCell>
      </root>
    </mxGraphModel>
  </diagram>
</mxfile>
